<svg width="18" height="19" viewBox="0 0 18 19" fill="none" xmlns="http://www.w3.org/2000/svg">
<g clip-path="url(#clip0_1_121)">
<path d="M9 14.3637L12.1823 11.1822C12.8115 10.5529 13.24 9.75105 13.4136 8.87816C13.5872 8.00527 13.498 7.10051 13.1574 6.27828C12.8168 5.45606 12.24 4.7533 11.5 4.25887C10.76 3.76444 9.88999 3.50053 9 3.50053C8.11002 3.50053 7.24002 3.76444 6.50002 4.25887C5.76001 4.7533 5.18323 5.45606 4.84262 6.27828C4.502 7.10051 4.41284 8.00527 4.58641 8.87816C4.75998 9.75105 5.18849 10.5529 5.81775 11.1822L9 14.3637ZM13.2428 12.2427L9 16.4855L4.75725 12.2427C3.91817 11.4036 3.34675 10.3345 3.11527 9.17064C2.88378 8.00676 3.00262 6.80038 3.45676 5.70404C3.91089 4.6077 4.67993 3.67065 5.66661 3.01137C6.6533 2.3521 7.81333 2.00021 9 2.00021C10.1867 2.00021 11.3467 2.3521 12.3334 3.01137C13.3201 3.67065 14.0891 4.6077 14.5433 5.70404C14.9974 6.80038 15.1162 8.00676 14.8847 9.17064C14.6533 10.3345 14.0818 11.4036 13.2428 12.2427ZM3.75 17H14.25V18.5H3.75V17Z" fill="#4FAF5A"/>
</g>
<defs>
<clipPath id="clip0_1_121">
<rect width="18" height="18" fill="white" transform="translate(0 0.5)"/>
</clipPath>
</defs>
</svg>
